<?xml version="1.0" encoding="UTF-8"?>
<svg width="723px" height="706px" viewBox="0 0 723 706" version="1.1" xmlns="http://www.w3.org/2000/svg" xmlns:xlink="http://www.w3.org/1999/xlink">
    <!-- Generator: Sketch 47.1 (45422) - http://www.bohemiancoding.com/sketch -->
    <title>bg_curiosite</title>
    <desc>Created with Sketch.</desc>
    <defs>
        <polygon id="path-1" points="125.324505 0.365453314 0.268248034 0.365453314 0.268248034 126.907849 125.324505 126.907849 125.324505 0.365453314"></polygon>
        <polygon id="path-3" points="0 34.7485826 0 0.257546667 138.582519 0.257546667 138.582519 34.7485826"></polygon>
        <polygon id="path-5" points="0.0498361969 0.432779487 52.5967389 0.432779487 52.5967389 53.8953518 0.0498361969 53.8953518 0.0498361969 0.432779487"></polygon>
    </defs>
    <g id="PAGE-FOOTER" stroke="none" stroke-width="1" fill="none" fill-rule="evenodd">
        <g id="bg_curiosite" transform="translate(-741.000000, 0.000000)">
            <g transform="translate(741.000000, 0.000000)">
                <g id="Group-8" transform="translate(0.000000, 331.000000)">
                    <path d="M240.435886,70.13395 C237.136473,63.2673313 231.922754,57.336272 225.205129,53.4608332 C209.477572,44.3873925 193.749564,35.3130518 178.022006,26.238711 C163.159801,17.6647753 142.129423,0.798156619 123.770256,0.0722993604 C123.279304,0.0542991804 122.661902,-0.0051014136 122.175,0.000748644897 C103.735732,0.235650994 84.2304102,15.9097577 69.0293543,24.6807954 C52.401343,34.2739914 35.7728818,43.8671873 19.1444205,53.4608332 C11.952044,57.6103247 7.13837629,62.9527782 4.16386534,68.8203868 C3.36331239,70.3994526 2.62800968,71.9987686 2.09655772,73.6435351 C2.02365745,73.8581872 1.93905714,74.0624893 1.86975689,74.2802914 C1.8180067,74.4517432 1.78110656,74.6263449 1.73250638,74.7986966 C0.630902324,78.4207828 0,82.4114228 0,86.8124668 L0,183.18588 C0,190.048449 1.901707,196.761616 5.2947195,202.606725 L5.2929195,202.612125 L5.29921952,202.613025 C8.60808171,208.310532 13.3326491,213.18498 19.1444205,216.537964 C34.8719784,225.612305 50.6004364,234.686195 66.3279943,243.760086 C81.6204006,252.582874 103.451331,270.236551 122.175,269.997599 C122.675852,269.992199 123.184354,269.859897 123.687006,269.831097 C141.678072,268.802387 160.532691,253.850087 175.320646,245.318452 C191.948657,235.724806 208.577118,226.13161 225.205129,216.537964 C230.79145,213.315482 235.342317,208.667385 238.628229,203.253381 C239.597082,201.657665 240.473686,200.010649 241.206738,198.292082 C243.230396,193.552184 244.35,188.415383 244.35,183.18588 L244.35,86.8124668 C244.35,80.9907585 242.920345,75.3045017 240.435886,70.13395" id="hexagone" fill="#FA6484"></path>
                    <g id="scolaire" transform="translate(0.000000, 47.250000)">
                        <g>
                            <rect id="size" fill-opacity="0" fill="#D8D8D8" x="0" y="0" width="244" height="176"></rect>
                            <path d="M121.865435,170.91721 C83.3480058,170.91721 52.1252302,163.164636 52.1252302,153.602872 C52.1252302,144.040205 83.3480058,136.287179 121.865435,136.287179 C160.381063,136.287179 191.60564,144.040205 191.60564,153.602872 C191.60564,163.164636 160.381063,170.91721 121.865435,170.91721 Z" id="Fill-3" fill-opacity="0.15" fill="#000000"></path>
                            <g id="Group-2" transform="translate(30.106814, 4.964103)">
                                <path d="M145.799245,31.7289641 L44.4457206,37.8050256 L44.4457206,79.7444718 C44.4457206,87.4672615 67.1427514,101.540041 95.1429783,101.540041 C122.442749,101.540041 144.69383,87.7759385 145.789785,80.3203077 L145.799245,80.3225641 L145.799245,80.2544205 L145.799245,31.7289641 Z" id="Fill-1" fill="#F1DFDF"></path>
                                <path d="M95.3026193,75.7761231 C94.7665789,75.7761231 94.2314394,75.6813538 93.720174,75.4913641 L42.2873247,56.3281231 C39.9382066,55.4526359 38.7418005,52.8356513 39.6161319,50.4813128 C40.4891119,48.1274256 43.1057998,46.9301744 45.4517648,47.8052103 L95.2701866,66.3668923 L140.559292,48.8029949 C142.895798,47.8959179 145.524197,49.0620308 146.430061,51.4019282 C147.334122,53.7431795 146.172851,56.3768615 143.835445,57.2834872 L96.9409208,75.4697026 C96.4134391,75.6736821 95.8575787,75.7761231 95.3026193,75.7761231" id="Fill-5" fill-opacity="0.2" fill="#51474B"></path>
                                <path d="M48.9837303,42.0875569 L48.9837303,79.7447877 C49.5247257,84.0134646 68.9226307,96.993239 95.1431135,96.993239 C122.007295,96.993239 140.076361,83.7481108 141.261055,79.8151877 L141.261055,36.5561928 L48.9837303,42.0875569 Z M95.1431135,106.086121 C65.9135973,106.086121 39.9075307,91.3562749 39.9075307,79.7447877 L39.9075307,37.8053415 C39.9075307,35.3995569 41.7773656,33.4103056 44.1737814,33.2667979 L145.527306,27.1907364 C146.787226,27.1095056 147.999848,27.5607877 148.910216,28.4195774 C149.821485,29.2788185 150.337254,30.476521 150.337254,31.7288287 L150.337254,80.2547364 C150.337254,80.4997826 150.317885,80.7430236 150.279596,80.9826544 C148.618772,92.2832082 122.849194,106.086121 95.1431135,106.086121 L95.1431135,106.086121 Z" id="Fill-7" fill="#51474B"></path>
                                <path d="M100.257209,40.9192328 C100.257209,42.5930379 97.2094365,43.9500431 93.4499466,43.9500431 C89.6904567,43.9500431 86.6426842,42.5930379 86.6426842,40.9192328 C86.6426842,39.2454277 93.7233722,37.8879713 93.4499466,37.8879713 C97.2094365,37.8879713 100.257209,39.2454277 100.257209,40.9192328" id="Fill-9" fill="#51474B"></path>
                                <path d="M12.1018999,107.601887 C9.59512281,107.601887 7.56357482,105.566154 7.56357482,103.055672 L7.56357482,39.4036923 C7.56357482,36.892759 9.59512281,34.8570256 12.1018999,34.8570256 C14.608677,34.8570256 16.640225,36.892759 16.640225,39.4036923 L16.640225,103.055672 C16.640225,105.566154 14.608677,107.601887 12.1018999,107.601887" id="Fill-13" fill="#51474B"></path>
                                <path d="M21.1782798,73.5027446 C21.1782798,78.1062728 17.4525739,81.8383754 12.8583925,81.8383754 C8.26240931,81.8383754 4.5380548,78.1062728 4.5380548,73.5027446 C4.5380548,68.8992164 8.26240931,65.1675651 12.8583925,65.1675651 C17.4525739,65.1675651 21.1782798,68.8992164 21.1782798,73.5027446" id="Fill-15" fill="#F1DFDF"></path>
                                <path d="M12.8583024,69.7140062 C10.7722495,69.7140062 9.07628978,71.4139856 9.07628978,73.5029703 C9.07628978,75.5919549 10.7722495,77.2919344 12.8583024,77.2919344 C14.9439049,77.2919344 16.640315,75.5919549 16.640315,73.5029703 C16.640315,71.4139856 14.9439049,69.7140062 12.8583024,69.7140062 M12.8583024,86.3843651 C5.76860531,86.3843651 9.00908202e-05,80.6061497 9.00908202e-05,73.5029703 C9.00908202e-05,66.3997908 5.76860531,60.6211241 12.8583024,60.6211241 C19.9475491,60.6211241 25.7165147,66.3997908 25.7165147,73.5029703 C25.7165147,80.6061497 19.9475491,86.3843651 12.8583024,86.3843651" id="Fill-17" fill="#51474B"></path>
                                <polygon id="Fill-19" fill="#F1DFDF" points="179.501905 35.2173744 95.1431135 65.8883077 10.7874748 35.2173744 95.1431135 4.54689231"></polygon>
                                <path d="M20.2023709,34.6693826 L95.1430684,60.4714338 L170.086469,34.6693826 L95.1430684,7.77116718 L20.2023709,34.6693826 Z M95.1430684,68.9194338 C94.7926151,68.9194338 94.4439637,68.8585108 94.1106276,68.7371159 L9.75453852,38.0666338 C8.55768197,37.6311467 7.76172957,36.4925621 7.76172957,35.217239 C7.76172957,33.9423672 8.55768197,32.8037826 9.75453852,32.3682954 L94.1106276,1.69781333 C94.7763988,1.45547487 95.5061344,1.45412103 96.1755092,1.69781333 L180.534301,32.3682954 C181.730707,32.8037826 182.52711,33.9423672 182.52711,35.217239 C182.52711,36.4925621 181.730707,37.6311467 180.534301,38.0666338 L96.1755092,68.7371159 C95.8412723,68.8585108 95.4917199,68.9194338 95.1430684,68.9194338 L95.1430684,68.9194338 Z" id="Fill-21" fill="#51474B"></path>
                                <path d="M45.3851426,53.0447754 C44.8459491,53.0447754 44.2977464,52.9472985 43.7630574,52.7424164 L9.16367787,39.4629908 C7.39384371,38.7842626 6.23257304,37.0757087 6.24878938,35.1776164 C6.26500573,33.2795241 7.45735774,31.5912779 9.23890371,30.9441395 L93.5949928,0.273206154 C94.5963523,-0.0909784615 95.6896044,-0.0909784615 96.6914143,0.273206154 L181.049756,30.9441395 C182.828599,31.5899241 184.019149,33.2750113 184.03987,35.1699446 C184.05924,37.0653292 182.904275,38.7747856 181.138946,39.4584779 L146.859839,52.7374523 C144.516577,53.6395651 141.893132,52.4766113 140.990422,50.1367138 C140.086361,47.79456 141.248983,45.1617805 143.585939,44.2556062 L166.569458,35.3522626 L95.1427531,9.38323692 L23.7723548,35.3328574 L47.0099306,44.2515446 C49.3500396,45.1495959 50.5216707,47.7783138 49.6248166,50.1231754 C48.9320182,51.9332677 47.2108331,53.0447754 45.3851426,53.0447754" id="Fill-23" fill="#51474B"></path>
                                <path d="M104.000708,32.5837374 C104.000708,34.46784 100.443472,35.9936246 96.0587515,35.9936246 C91.6744817,35.9936246 88.1167953,34.46784 88.1167953,32.5837374 C88.1167953,30.6996349 91.6744817,29.1738503 96.0587515,29.1738503 C100.443472,29.1738503 104.000708,30.6996349 104.000708,32.5837374" id="Fill-25" fill="#51474B"></path>
                            </g>
                        </g>
                    </g>
                </g>
                <g id="Group-7" transform="translate(478.000000, 436.000000)">
                    <path d="M240.435886,70.13395 C237.136473,63.2673313 231.922754,57.336272 225.205129,53.4608332 C209.477572,44.3873925 193.749564,35.3130518 178.022006,26.238711 C163.159801,17.6647753 142.129423,0.798156619 123.770256,0.0722993604 C123.279304,0.0542991804 122.661902,-0.0051014136 122.175,0.000748644897 C103.735732,0.235650994 84.2304102,15.9097577 69.0293543,24.6807954 C52.401343,34.2739914 35.7728818,43.8671873 19.1444205,53.4608332 C11.952044,57.6103247 7.13837629,62.9527782 4.16386534,68.8203868 C3.36331239,70.3994526 2.62800968,71.9987686 2.09655772,73.6435351 C2.02365745,73.8581872 1.93905714,74.0624893 1.86975689,74.2802914 C1.8180067,74.4517432 1.78110656,74.6263449 1.73250638,74.7986966 C0.630902324,78.4207828 0,82.4114228 0,86.8124668 L0,183.18588 C0,190.048449 1.901707,196.761616 5.2947195,202.606725 L5.2929195,202.612125 L5.29921952,202.613025 C8.60808171,208.310532 13.3326491,213.18498 19.1444205,216.537964 C34.8719784,225.612305 50.6004364,234.686195 66.3279943,243.760086 C81.6204006,252.582874 103.451331,270.236551 122.175,269.997599 C122.675852,269.992199 123.184354,269.859897 123.687006,269.831097 C141.678072,268.802387 160.532691,253.850087 175.320646,245.318452 C191.948657,235.724806 208.577118,226.13161 225.205129,216.537964 C230.79145,213.315482 235.342317,208.667385 238.628229,203.253381 C239.597082,201.657665 240.473686,200.010649 241.206738,198.292082 C243.230396,193.552184 244.35,188.415383 244.35,183.18588 L244.35,86.8124668 C244.35,80.9907585 242.920345,75.3045017 240.435886,70.13395" id="hexagone" fill="#FA6484"></path>
                    <g id="langue" transform="translate(0.000000, 47.250000)">
                        <g id="Group">
                            <g>
                                <rect id="size" fill-opacity="0" fill="#D8D8D8" x="0" y="0" width="244" height="176"></rect>
                                <path d="M121.865435,170.91721 C83.3480058,170.91721 52.1252302,163.164636 52.1252302,153.602872 C52.1252302,144.040205 83.3480058,136.287179 121.865435,136.287179 C160.381063,136.287179 191.60564,144.040205 191.60564,153.602872 C191.60564,163.164636 160.381063,170.91721 121.865435,170.91721 Z" id="Fill-3" fill-opacity="0.15" fill="#000000"></path>
                                <g id="Picto" transform="translate(59.314917, 3.158974)">
                                    <path d="M101.604611,30.34064 C117.426865,46.2307323 117.426865,71.9930708 101.604611,87.8827118 C85.7823565,103.772353 60.1300029,103.772353 44.3081982,87.8827118 C28.4863934,71.9930708 28.4863934,46.2307323 44.3081982,30.34064 C60.1300029,14.450999 85.7823565,14.450999 101.604611,30.34064" id="Fill-4" fill="#F1DFDF"></path>
                                    <path d="M69.6025053,10.4196513 C57.8123175,10.4196513 46.726719,15.0308513 38.3889289,23.4039385 C21.1781665,40.6893949 21.1781665,68.8132923 38.3893783,86.0992 C46.726719,94.4718359 57.8123175,99.0834872 69.6025053,99.0834872 C81.3935919,99.0834872 92.4787411,94.4718359 100.815632,86.0992 C118.027294,68.8132923 118.027294,40.6893949 100.816082,23.4039385 C92.4787411,15.0308513 81.3935919,10.4196513 69.6025053,10.4196513 M69.6025053,107.572554 C55.5534077,107.572554 42.3464022,102.078195 32.4120523,92.1012513 C11.9061665,71.5065436 11.9061665,37.9965949 32.4116029,17.4018872 C42.3464022,7.42494359 55.5534077,1.93058462 69.6025053,1.93058462 C83.6516029,1.93058462 96.8595072,7.42494359 106.793408,17.4018872 C127.299743,37.9965949 127.299743,71.5065436 106.792958,92.1012513 C96.8595072,102.078195 83.6516029,107.572554 69.6025053,107.572554" id="Fill-6" fill="#51474B"></path>
                                    <polygon id="Fill-8" fill="#51474B" points="35.4006254 93.1023303 31.4157414 89.100361 103.804655 16.401079 107.789539 20.4030482"></polygon>
                                    <path d="M48.5951389,18.3997169 C43.8081554,18.3997169 40.0398608,19.7458913 37.3954041,22.4007836 C28.3112346,31.5248041 35.3867853,54.0455836 52.8460413,71.580599 C64.8348442,83.6194503 79.3058866,91.098999 90.6143654,91.098999 C95.4017982,91.098999 99.1709915,89.7519221 101.815448,87.0970297 C106.062756,82.8306092 106.961467,75.5207426 104.343522,66.5145067 C101.555721,56.9184451 95.1703801,46.7632451 86.3643617,37.9185682 C74.3755587,25.8788144 59.9031683,18.3997169 48.5951389,18.3997169 M90.6143654,96.7580759 C77.8661517,96.7580759 61.8677503,88.6440246 48.862056,75.5816656 C28.5655698,55.1990605 21.7789547,30.0811528 33.4114188,18.3997169 C37.0974814,14.6964964 42.348649,12.7401887 48.5951389,12.7401887 C61.3429031,12.7401887 77.3422033,20.8546913 90.348347,33.9175015 C99.8131204,43.4224041 106.704435,54.4359426 109.753761,64.9287015 C112.973393,76.0108349 111.569607,85.3045374 105.799434,91.0980964 C102.112922,94.8008656 96.8613046,96.7580759 90.6143654,96.7580759" id="Fill-10" fill="#51474B"></path>
                                    <path d="M121.351221,110.852607 C120.269173,110.852607 119.188024,110.437879 118.362558,109.608874 L102.679604,93.858679 C101.029121,92.2015713 101.029121,89.5141867 102.680053,87.8557251 C104.329637,86.1986174 107.006447,86.1990687 108.657379,87.8566277 L124.339884,103.606823 C125.989917,105.264382 125.989917,107.951766 124.338985,109.609776 C123.514418,110.437879 122.43237,110.852607 121.351221,110.852607" id="Fill-12" fill="#51474B"></path>
                                    <path d="M102.054415,90.0574851 C101.333649,90.0574851 100.612434,89.7813005 100.061973,89.22848 L33.7137451,22.5966851 C32.6132737,21.4914954 32.6132737,19.6999056 33.7137451,18.5951672 C34.8128685,17.4895262 36.5977083,17.4895262 37.6981797,18.5951672 L104.046857,85.2274133 C105.147329,86.3317005 105.147329,88.1237415 104.046857,89.22848 C103.496846,89.7813005 102.775182,90.0574851 102.054415,90.0574851" id="Fill-14" fill="#51474B"></path>
                                    <path d="M33.2951256,22.4182933 C32.2135271,22.4182933 31.1319285,22.0035651 30.306912,21.1754626 L16.4362085,7.24573949 C14.7852766,5.58818051 14.7852766,2.90034462 16.4353098,1.24323692 C18.0862416,-0.414773333 20.7630519,-0.413870769 22.4126357,1.24278564 L36.2828899,15.1720574 C37.9342711,16.8300677 37.9342711,19.5174523 36.2837886,21.17456 C35.4583227,22.0035651 34.3762748,22.4182933 33.2951256,22.4182933" id="Fill-16" fill="#51474B"></path>
                                    <path d="M69.4344464,126.439483 C31.3039418,126.439483 0.280892081,95.2838728 0.280892081,56.9889805 C0.280892081,36.5702728 9.17678158,17.2698421 24.6867337,4.03780103 C26.4661812,2.52059077 29.1326564,2.73901128 30.6447374,4.52473436 C32.155021,6.31136 31.9384317,8.99062154 30.1598829,10.5078318 C16.5435145,22.1238318 8.73371713,39.0658626 8.73371713,56.9889805 C8.73371713,90.6036267 35.964207,117.949965 69.4344464,117.949965 C87.2814961,117.949965 104.151198,110.107134 115.717157,96.4328369 C117.229688,94.6471138 119.896163,94.4291446 121.675161,95.9459036 C123.454159,97.4635651 123.670748,100.142827 122.160015,101.929001 C108.984465,117.505452 89.7664317,126.439483 69.4344464,126.439483" id="Fill-18" fill="#51474B"></path>
                                    <path d="M66.4947632,144.832295 C64.160811,144.832295 62.2685753,142.931495 62.2685753,140.587988 L62.2685753,122.194634 C62.2685753,119.851126 64.160811,117.950326 66.4947632,117.950326 C68.8282659,117.950326 70.720951,119.851126 70.720951,122.194634 L70.720951,140.587988 C70.720951,142.931495 68.8282659,144.832295 66.4947632,144.832295" id="Fill-20" fill="#51474B"></path>
                                    <path d="M104.532027,149.076738 C104.532027,149.076738 81.9914593,154.736267 66.4949878,154.736267 C48.1806085,154.736267 27.0483212,147.661969 27.0483212,147.661969 L66.4078129,133.513826 L66.4949878,133.513826 L104.532027,149.076738 Z" id="Fill-22" fill="#F1DFDF"></path>
                                    <path d="M41.1096862,147.115602 C48.4215978,148.812423 57.8450306,150.491192 66.4946733,150.491192 C73.7993952,150.491192 82.8673878,149.154946 90.1986217,147.795233 L66.3567212,138.039869 L41.1096862,147.115602 Z M66.4946733,158.98071 C47.7102681,158.98071 26.6013473,151.986289 25.7116236,151.688894 C24.0022755,151.115766 22.8420398,149.518228 22.8218188,147.708135 C22.8024965,145.898946 23.9276825,144.275233 25.6244486,143.665099 L64.983491,129.516956 C65.9567948,129.169469 67.1345554,129.192033 68.0889864,129.582392 L106.126474,145.146207 C107.819646,145.838925 108.877878,147.546576 108.748014,149.377879 C108.61815,151.209182 107.331196,152.748956 105.557141,153.194823 C104.616191,153.430843 82.3295094,158.98071 66.4946733,158.98071 L66.4946733,158.98071 Z" id="Fill-24" fill="#51474B"></path>
                                </g>
                            </g>
                        </g>
                    </g>
                </g>
                <g id="Group-3" transform="translate(445.000000, 0.000000)">
                    <path d="M240.435886,70.13395 C237.136473,63.2673313 231.922754,57.336272 225.205129,53.4608332 C209.477572,44.3873925 193.749564,35.3130518 178.022006,26.238711 C163.159801,17.6647753 142.129423,0.798156619 123.770256,0.0722993604 C123.279304,0.0542991804 122.661902,-0.0051014136 122.175,0.000748644897 C103.735732,0.235650994 84.2304102,15.9097577 69.0293543,24.6807954 C52.401343,34.2739914 35.7728818,43.8671873 19.1444205,53.4608332 C11.952044,57.6103247 7.13837629,62.9527782 4.16386534,68.8203868 C3.36331239,70.3994526 2.62800968,71.9987686 2.09655772,73.6435351 C2.02365745,73.8581872 1.93905714,74.0624893 1.86975689,74.2802914 C1.8180067,74.4517432 1.78110656,74.6263449 1.73250638,74.7986966 C0.630902324,78.4207828 0,82.4114228 0,86.8124668 L0,183.18588 C0,190.048449 1.901707,196.761616 5.2947195,202.606725 L5.2929195,202.612125 L5.29921952,202.613025 C8.60808171,208.310532 13.3326491,213.18498 19.1444205,216.537964 C34.8719784,225.612305 50.6004364,234.686195 66.3279943,243.760086 C81.6204006,252.582874 103.451331,270.236551 122.175,269.997599 C122.675852,269.992199 123.184354,269.859897 123.687006,269.831097 C141.678072,268.802387 160.532691,253.850087 175.320646,245.318452 C191.948657,235.724806 208.577118,226.13161 225.205129,216.537964 C230.79145,213.315482 235.342317,208.667385 238.628229,203.253381 C239.597082,201.657665 240.473686,200.010649 241.206738,198.292082 C243.230396,193.552184 244.35,188.415383 244.35,183.18588 L244.35,86.8124668 C244.35,80.9907585 242.920345,75.3045017 240.435886,70.13395" id="hexagone" fill="#FA6484"></path>
                    <g id="musique" transform="translate(0.000000, 47.250000)">
                        <g>
                            <rect id="size" fill-opacity="0" fill="#D8D8D8" x="0" y="0" width="244" height="176"></rect>
                            <g id="picto" transform="translate(54.372007, 4.512821)">
                                <path d="M38.239682,106.310009 C38.239682,114.097045 31.357232,120.409216 22.8672646,120.409216 C14.3772972,120.409216 7.49439935,114.097045 7.49439935,106.310009 C7.49439935,98.523423 14.3772972,92.2112522 22.8672646,92.2112522 C31.357232,92.2112522 38.239682,98.523423 38.239682,106.310009" id="Fill-3" fill="#F1DFDF"></path>
                                <path d="M121.641171,92.53863 C121.641171,101.810433 113.445923,109.326529 103.336793,109.326529 C93.2276623,109.326529 85.0328618,101.810433 85.0328618,92.53863 C85.0328618,83.2663773 93.2276623,75.7502808 103.336793,75.7502808 C113.445923,75.7502808 121.641171,83.2663773 121.641171,92.53863" id="Fill-5" fill="#F1DFDF"></path>
                                <g id="Group-9" transform="translate(0.443539, 0.084612)">
                                    <mask id="mask-2" fill="white">
                                        <use xlink:href="#path-1"></use>
                                    </mask>
                                    <g id="Clip-8"></g>
                                    <path d="M102.893164,105.095867 C95.0759446,105.095867 88.7157475,99.4245895 88.7157475,92.4539726 C88.7157475,85.4833557 95.0759446,79.8125284 102.893164,79.8125284 C110.71128,79.8125284 117.071029,85.4833557 117.071029,92.4539726 C117.071029,99.4245895 110.71128,105.095867 102.893164,105.095867 L102.893164,105.095867 Z M45.130033,46.0576041 L45.130033,23.1641143 L117.071029,9.51497309 L117.071029,31.8535319 L45.130033,46.0576041 Z M22.6991405,118.614489 C14.8814728,118.614489 8.52172359,112.943662 8.52172359,105.973045 C8.52172359,99.0024279 14.8814728,93.3311506 22.6991405,93.3311506 C30.5168082,93.3311506 36.8770054,99.0024279 36.8770054,105.973045 C36.8770054,112.943662 30.5168082,118.614489 22.6991405,118.614489 L22.6991405,118.614489 Z M123.831202,1.31972753 C122.885235,0.532112627 121.640965,0.207615288 120.43208,0.437598839 L40.238056,15.6525185 C38.28879,16.0220224 36.8770054,17.7336221 36.8770054,19.7269629 L36.8770054,89.7648303 C33.0102742,86.8128497 28.0726113,85.0386908 22.6991405,85.0386908 C10.3307966,85.0386908 0.268248034,94.4297608 0.268248034,105.973045 C0.268248034,117.516779 10.3307966,126.907849 22.6991405,126.907849 C35.0674845,126.907849 45.130033,117.516779 45.130033,105.973045 L45.130033,54.5093871 L117.071029,40.3053149 L117.071029,76.245308 C113.204298,73.2937774 108.267083,71.5191685 102.893164,71.5191685 C90.5252684,71.5191685 80.4627198,80.9106886 80.4627198,92.4539726 C80.4627198,103.997707 90.5252684,113.388777 102.893164,113.388777 C115.261956,113.388777 125.324505,103.997707 125.324505,92.4539726 L125.324505,4.5124933 C125.324505,3.2779632 124.77717,2.10734243 123.831202,1.31972753 L123.831202,1.31972753 Z" id="Fill-7" fill="#51474B" mask="url(#mask-2)"></path>
                                </g>
                            </g>
                            <path d="M121.865435,170.91721 C83.3480058,170.91721 52.1252302,163.164636 52.1252302,153.602872 C52.1252302,144.040205 83.3480058,136.287179 121.865435,136.287179 C160.381063,136.287179 191.60564,144.040205 191.60564,153.602872 C191.60564,163.164636 160.381063,170.91721 121.865435,170.91721 Z" id="Fill-3" fill-opacity="0.15" fill="#000000"></path>
                        </g>
                    </g>
                </g>
                <g id="Group-5" transform="translate(276.000000, 233.000000)">
                    <path d="M240.435886,70.13395 C237.136473,63.2673313 231.922754,57.336272 225.205129,53.4608332 C209.477572,44.3873925 193.749564,35.3130518 178.022006,26.238711 C163.159801,17.6647753 142.129423,0.798156619 123.770256,0.0722993604 C123.279304,0.0542991804 122.661902,-0.0051014136 122.175,0.000748644897 C103.735732,0.235650994 84.2304102,15.9097577 69.0293543,24.6807954 C52.401343,34.2739914 35.7728818,43.8671873 19.1444205,53.4608332 C11.952044,57.6103247 7.13837629,62.9527782 4.16386534,68.8203868 C3.36331239,70.3994526 2.62800968,71.9987686 2.09655772,73.6435351 C2.02365745,73.8581872 1.93905714,74.0624893 1.86975689,74.2802914 C1.8180067,74.4517432 1.78110656,74.6263449 1.73250638,74.7986966 C0.630902324,78.4207828 0,82.4114228 0,86.8124668 L0,183.18588 C0,190.048449 1.901707,196.761616 5.2947195,202.606725 L5.2929195,202.612125 L5.29921952,202.613025 C8.60808171,208.310532 13.3326491,213.18498 19.1444205,216.537964 C34.8719784,225.612305 50.6004364,234.686195 66.3279943,243.760086 C81.6204006,252.582874 103.451331,270.236551 122.175,269.997599 C122.675852,269.992199 123.184354,269.859897 123.687006,269.831097 C141.678072,268.802387 160.532691,253.850087 175.320646,245.318452 C191.948657,235.724806 208.577118,226.13161 225.205129,216.537964 C230.79145,213.315482 235.342317,208.667385 238.628229,203.253381 C239.597082,201.657665 240.473686,200.010649 241.206738,198.292082 C243.230396,193.552184 244.35,188.415383 244.35,183.18588 L244.35,86.8124668 C244.35,80.9907585 242.920345,75.3045017 240.435886,70.13395" id="hexagone" fill="#FA6484"></path>
                    <g id="sport" transform="translate(0.000000, 47.250000)">
                        <g>
                            <rect id="size" fill-opacity="0" fill="#D8D8D8" x="0" y="0" width="244" height="176"></rect>
                            <g id="Page-1" transform="translate(47.182320, 3.610256)">
                                <path d="M74.6831146,167.306954 C36.1656853,167.306954 4.94290976,159.554379 4.94290976,149.992615 C4.94290976,140.429949 36.1656853,132.676923 74.6831146,132.676923 C113.198742,132.676923 144.42332,140.429949 144.42332,149.992615 C144.42332,159.554379 113.198742,167.306954 74.6831146,167.306954 Z" id="Fill-3" fill-opacity="0.15" fill="#000000"></path>
                                <g id="Group-38">
                                    <polygon id="Fill-3" fill="#F1DFDF" points="34.0947087 61.6749579 43.502414 52.2269169 22.9781046 31.6155118 13.5703993 41.0626503"></polygon>
                                    <path d="M19.214663,41.0627405 L34.0946188,56.0060431 L37.8575212,52.2270072 L22.9780147,37.2837046 L19.214663,41.0627405 Z M34.0946188,65.6833354 C33.0732339,65.6833354 32.0513996,65.2916226 31.2726667,64.5090995 L10.7483573,43.8963405 C9.99928177,43.1449559 9.57913444,42.1250585 9.57913444,41.0627405 C9.57913444,39.99952 9.99928177,38.9800738 10.7483573,38.2277867 L20.1560626,28.7806482 C21.7144273,27.2156021 24.2425009,27.2169559 25.7995175,28.7806482 L46.3238269,49.3925046 C47.0729024,50.1447918 47.4934991,51.1633354 47.4934991,52.2270072 C47.4934991,53.2897764 47.0729024,54.3096738 46.3238269,55.0610585 L36.9165709,64.5090995 C36.1373886,65.2916226 35.1160037,65.6833354 34.0946188,65.6833354 Z" id="Fill-4" fill="#51474B"></path>
                                    <polyline id="Fill-6" fill="#F1DFDF" points="27.9384494 35.7357169 32.2136169 31.4422195 22.8054622 21.9946297 3.99095028 40.8902605 13.399105 50.337399 18.6224125 45.0907938"></polyline>
                                    <path d="M13.3989252,54.3458215 C12.3406932,54.3458215 11.3251499,53.9238728 10.5769731,53.1720369 L1.16926777,43.7248985 C0.420192265,42.9726113 4.49355433e-05,41.9536164 4.49355433e-05,40.8903959 C4.49355433e-05,39.8276267 0.420192265,38.8077292 1.16836906,38.0563446 L19.982881,19.1607138 C21.4805827,17.6561395 24.130881,17.6561395 25.627684,19.1607138 L35.03494,28.6083036 C36.5942033,30.173801 36.5942033,32.71136 35.03494,34.2764062 L30.7602217,38.5699036 L25.1163175,32.901801 L26.5690836,31.4423549 L22.8057319,27.663319 L9.63557348,40.8903959 L13.3989252,44.6689805 L15.7998313,42.2568779 L21.4446343,47.9249805 L16.2213267,53.1715856 C15.4731499,53.9238728 14.4576066,54.3458215 13.3989252,54.3458215" id="Fill-8" fill="#51474B"></path>
                                    <path d="M17.3711374,47.1109579 C16.6903639,47.1109579 16.0091411,46.8496656 15.4896862,46.3279836 C14.4503271,45.2850708 14.4503271,43.5927631 15.4896862,42.549399 L25.1948648,32.8026092 C26.2333252,31.7587938 27.9197562,31.7587938 28.9573179,32.8026092 C29.9971263,33.8455221 29.9971263,35.5378297 28.9573179,36.5811938 L19.2525886,46.3279836 C18.7331337,46.8496656 18.0519109,47.1109579 17.3711374,47.1109579" id="Fill-10" fill="#51474B"></path>
                                    <polygon id="Fill-12" fill="#F1DFDF" points="66.1199558 33.6169026 82.0846556 33.6169026 82.0846556 13.7632 66.1199558 13.7632"></polygon>
                                    <path d="M70.1106814,29.6086154 L78.0930313,29.6086154 L78.0930313,17.7714872 L70.1106814,17.7714872 L70.1106814,29.6086154 Z M82.0846556,37.6251897 L66.1195064,37.6251897 C63.915418,37.6251897 62.1283315,35.830441 62.1283315,33.6169026 L62.1283315,13.7632 C62.1283315,11.5496615 63.915418,9.75491282 66.1195064,9.75491282 L82.0846556,9.75491282 C84.2882947,9.75491282 86.0753812,11.5496615 86.0753812,13.7632 L86.0753812,33.6169026 C86.0753812,35.830441 84.2882947,37.6251897 82.0846556,37.6251897 L82.0846556,37.6251897 Z" id="Fill-14" fill="#51474B"></path>
                                    <polygon id="Fill-15" fill="#F1DFDF" points="115.839652 61.6749579 106.431946 52.2269169 126.956256 31.6155118 136.363961 41.0626503"></polygon>
                                    <path d="M112.076749,52.2269169 L115.839652,56.0059528 L130.719607,41.0626503 L126.956256,37.2840656 L112.076749,52.2269169 Z M115.839652,65.6832451 C114.818716,65.6832451 113.796882,65.2915323 113.018149,64.5090092 L103.610443,55.0609682 C102.861368,54.3095836 102.441221,53.2896862 102.441221,52.2269169 C102.441221,51.1636964 102.861368,50.1447015 103.610443,49.3924144 L124.134753,28.7805579 C125.692219,27.2164144 128.220742,27.2164144 129.778657,28.7805579 L139.185913,38.2276964 C139.934989,38.9799836 140.355585,39.9994297 140.355585,41.0626503 C140.355585,42.1254195 139.934989,43.1448656 139.185913,43.8967015 L118.661604,64.5090092 C117.882871,65.2915323 116.860587,65.6832451 115.839652,65.6832451 L115.839652,65.6832451 Z" id="Fill-16" fill="#51474B"></path>
                                    <path d="M127.537407,82.3843364 C127.537407,111.532193 104.009157,135.159967 74.9866372,135.159967 C45.9636685,135.159967 22.4358674,111.532193 22.4358674,82.3843364 C22.4358674,53.2369313 45.9636685,29.6087056 74.9866372,29.6087056 C104.009157,29.6087056 127.537407,53.2369313 127.537407,82.3843364" id="Fill-17" fill="#F1DFDF"></path>
                                    <polyline id="Fill-18" fill="#F1DFDF" points="121.995911 35.7357169 117.720743 31.4422195 127.128898 21.9946297 145.94341 40.8902605 136.535255 50.337399 131.311948 45.0907938"></polyline>
                                    <path d="M18.8620088,75.7037374 C18.8620088,73.4906503 20.6490954,71.6959015 22.8527344,71.6959015 C25.0572722,71.6959015 26.8443587,73.4906503 26.8443587,75.7037374 C26.8443587,102.594281 48.4412796,124.471532 74.9865024,124.471532 C101.532175,124.471532 123.129095,102.594281 123.129095,75.7037374 C123.129095,73.4906503 124.915733,71.6959015 127.12027,71.6959015 C129.324359,71.6959015 131.111445,73.4906503 131.111445,75.7037374 C131.111445,107.01504 105.93406,132.488107 74.9865024,132.488107 C44.0393937,132.488107 18.8620088,107.01504 18.8620088,75.7037374 Z" id="Fill-19" fill-opacity="0.2" fill="#51474B"></path>
                                    <path d="M136.53548,54.3458215 L136.53548,54.3458215 C135.476799,54.3458215 134.461255,53.9238728 133.713078,53.1715856 L128.489771,47.9249805 L134.134574,42.2568779 L136.53548,44.6689805 L140.298832,40.8903959 L127.128673,27.663319 L123.365322,31.4423549 L124.818088,32.901801 L119.174183,38.5699036 L114.899465,34.2764062 C113.340202,32.71136 113.340202,30.173801 114.899465,28.6083036 L124.306721,19.1607138 C125.054898,18.4084267 126.070441,17.9864779 127.128673,17.9864779 C128.187355,17.9864779 129.202449,18.4084267 129.951524,19.1607138 L148.766036,38.0563446 C149.514213,38.8077292 149.93436,39.8276267 149.93436,40.8903959 C149.93436,41.9536164 149.514213,42.9726113 148.765137,43.7248985 L139.357432,53.1720369 C138.609255,53.9238728 137.593712,54.3458215 136.53548,54.3458215" id="Fill-20" fill="#51474B"></path>
                                    <polyline id="Fill-21" fill="#F96484" points="66.1196413 17.5837538 58.136842 17.5837538 58.136842 4.22264615 90.066691 4.22264615 90.066691 17.5837538 82.0843411 17.5837538"></polyline>
                                    <path d="M90.066691,21.5919508 L82.0843411,21.5919508 L82.0843411,13.5753764 L86.075516,13.5753764 L86.075516,8.23084308 L62.1284663,8.23084308 L62.1284663,13.5753764 L66.1196413,13.5753764 L66.1196413,21.5919508 L58.136842,21.5919508 C55.9332029,21.5919508 54.1461164,19.7972021 54.1461164,17.5836636 L54.1461164,4.2225559 C54.1461164,2.00901744 55.9332029,0.214268718 58.136842,0.214268718 L90.066691,0.214268718 C92.2707794,0.214268718 94.0578659,2.00901744 94.0578659,4.2225559 L94.0578659,17.5836636 C94.0578659,19.7972021 92.2707794,21.5919508 90.066691,21.5919508" id="Fill-22" fill="#51474B"></path>
                                    <path d="M66.1196413,45.6416738 C66.1196413,47.8552123 64.3321053,49.649961 62.1284663,49.649961 C59.9243779,49.649961 58.136842,47.8552123 58.136842,45.6416738 C58.136842,43.4281354 59.9243779,41.6333867 62.1284663,41.6333867 C64.3321053,41.6333867 66.1196413,43.4281354 66.1196413,45.6416738" id="Fill-23" fill="#51474B"></path>
                                    <path d="M66.1196413,45.6416738 C66.1196413,47.8552123 64.3321053,49.649961 62.1284663,49.649961 C59.9243779,49.649961 58.136842,47.8552123 58.136842,45.6416738 C58.136842,43.4281354 59.9243779,41.6333867 62.1284663,41.6333867 C64.3321053,41.6333867 66.1196413,43.4281354 66.1196413,45.6416738" id="Fill-24" fill="#51474B"></path>
                                    <path d="M44.2499617,60.119479 C45.6667794,61.8149456 45.4461459,64.3439303 43.7579175,65.7668226 C42.0696891,67.1897149 39.5519506,66.9685867 38.135133,65.2726687 C36.7183153,63.5767508 36.9384994,61.0486687 38.6267278,59.6257764 C40.3158549,58.2028841 42.833144,58.4240123 44.2499617,60.119479" id="Fill-25" fill="#51474B"></path>
                                    <path d="M36.7636552,85.3278236 C38.934042,85.7123159 40.384112,87.7913723 40.0008118,89.9715159 C39.6184103,92.1521108 37.5486792,93.6074954 35.3773937,93.2230031 C33.2065576,92.8385108 31.756937,90.7599056 32.1397878,88.5793108 C32.5226387,86.3991672 34.5928192,84.9433313 36.7636552,85.3278236" id="Fill-26" fill="#51474B"></path>
                                    <path d="M47.1633127,109.471865 C49.0717252,108.365321 51.5130733,109.021485 52.6157915,110.938983 C53.7171617,112.85648 53.0629002,115.307393 51.1544877,116.414388 C49.2456258,117.520931 46.8038284,116.864767 45.7024582,114.94727 C44.6001893,113.029772 45.2540015,110.578859 47.1633127,109.471865" id="Fill-27" fill="#51474B"></path>
                                    <path d="M70.5824597,121.253214 C71.3364781,119.173707 73.6268427,118.101009 75.6979219,118.857358 C77.7694505,119.615061 78.8375683,121.915696 78.0831006,123.995204 C77.3299808,126.076066 75.0391669,127.148312 72.9680877,126.391061 C70.8965591,125.634261 69.8288906,123.333625 70.5824597,121.253214" id="Fill-28" fill="#51474B"></path>
                                    <path d="M96.0636538,115.160455 C95.3100847,113.080045 96.3782026,110.780312 98.4492818,110.022609 C100.52081,109.265809 102.810726,110.338507 103.564744,112.418466 C104.319212,114.498876 103.250195,116.799512 101.179565,117.556312 C99.1075875,118.313563 96.8181215,117.240866 96.0636538,115.160455" id="Fill-29" fill="#51474B"></path>
                                    <path d="M111.683563,94.0440656 C109.775151,92.9366195 109.120889,90.4857067 110.222709,88.5682092 C111.324978,86.6511631 113.766326,85.9940964 115.674738,87.1010913 C117.584049,88.2080862 118.238311,90.6594503 117.136042,92.5764964 C116.034222,94.4939938 113.592874,95.1501579 111.683563,94.0440656" id="Fill-30" fill="#51474B"></path>
                                    <path d="M110.133646,67.7840082 C107.96326,68.1689518 105.89263,66.7126646 105.510228,64.5329723 C105.127827,62.3528287 106.576998,60.273321 108.747385,59.88928 C110.918221,59.505239 112.988851,60.9606236 113.371252,63.1407672 C113.754103,65.3209108 112.304483,67.3995159 110.133646,67.7840082" id="Fill-31" fill="#51474B"></path>
                                    <path d="M92.1388037,48.6688738 C90.7224354,50.3643405 88.2046969,50.5854687 86.5160192,49.1625764 C84.8273414,47.7396841 84.6071573,45.2116021 86.0244243,43.5156841 C87.4407926,41.8197662 89.9585311,41.5986379 91.6472088,43.0215303 C93.3354372,44.4444226 93.5560707,46.9725046 92.1388037,48.6688738" id="Fill-32" fill="#51474B"></path>
                                    <path d="M83.5426792,80.9492144 C87.043158,85.2237579 86.7951138,87.7771118 82.5392685,91.2921477 C78.2829738,94.8071836 75.7400715,94.5589785 72.2395926,90.2844349 C68.7395632,86.00944 52.8157547,54.9941785 52.8157547,54.9941785 C52.8157547,54.9941785 80.0426497,76.6742195 83.5426792,80.9492144" id="Fill-33" fill="#F96484"></path>
                                    <path d="M61.0538328,65.0556021 C66.5988788,75.5736328 72.5263263,86.4278687 74.2949893,88.5868021 C75.6551882,90.2484226 76.7026357,91.0562174 77.4970961,91.0562174 C78.2520133,91.0562174 79.3803448,90.4406687 80.8488383,89.2280738 C82.4027094,87.945079 83.227726,86.9080328 83.3018696,86.1462687 C83.3755639,85.3840533 82.7648899,84.2066585 81.4882711,82.6465764 C79.7196081,80.4867405 70.2593282,72.5500431 61.0538328,65.0556021 M77.4970961,96.4007508 C74.2235418,96.4007508 71.8689193,94.0387405 70.1847352,91.9817969 C66.6074166,87.6133867 52.0941348,59.4195405 50.4503926,56.2190482 C49.8761164,55.0998687 50.1574129,53.7302277 51.1253245,52.9301046 C52.0941348,52.1304328 53.4857886,52.1182482 54.4689783,52.90032 C57.2783484,55.1373251 82.0212066,74.8831713 85.5980759,79.2520328 C87.145656,81.1420021 88.8860096,83.6930995 88.5979727,86.6647918 C88.3094866,89.6355815 86.1116891,91.8008328 84.2293392,93.3559508 C81.6792471,95.4611815 79.603225,96.4007508 77.4970961,96.4007508" id="Fill-34" fill="#51474B"></path>
                                    <path d="M132.563223,47.1109579 C131.882449,47.1109579 131.201227,46.8496656 130.681772,46.3279836 L120.977042,36.5811938 C119.937234,35.5378297 119.937234,33.8455221 120.977042,32.8026092 C122.014604,31.7587938 123.701035,31.7587938 124.739495,32.8026092 L134.444674,42.549399 C135.484033,43.5927631 135.484033,45.2850708 134.444674,46.3279836 C133.925219,46.8496656 133.243996,47.1109579 132.563223,47.1109579" id="Fill-35" fill="#51474B"></path>
                                    <polygon id="Fill-36" fill="#51474B" points="64.0407882 18.9195487 84.4123168 18.9195487 84.4123168 13.5750154 64.0407882 13.5750154"></polygon>
                                    <path d="M74.9865024,33.6168123 C48.2112096,33.6168123 26.4273569,55.4940636 26.4273569,82.3841559 C26.4273569,109.274699 48.2112096,131.151951 74.9865024,131.151951 C101.762245,131.151951 123.545648,109.274699 123.545648,82.3841559 C123.545648,55.4940636 101.762245,33.6168123 74.9865024,33.6168123 M74.9865024,139.168976 C43.8093238,139.168976 18.445007,113.695007 18.445007,82.3841559 C18.445007,51.0737559 43.8093238,25.6002379 74.9865024,25.6002379 C106.16413,25.6002379 131.528447,51.0737559 131.528447,82.3841559 C131.528447,113.695007 106.16413,139.168976 74.9865024,139.168976" id="Fill-37" fill="#51474B"></path>
                                </g>
                            </g>
                        </g>
                    </g>
                </g>
                <g id="Group" transform="translate(86.000000, 27.000000)">
                    <path d="M240.435886,70.13395 C237.136473,63.2673313 231.922754,57.336272 225.205129,53.4608332 C209.477572,44.3873925 193.749564,35.3130518 178.022006,26.238711 C163.159801,17.6647753 142.129423,0.798156619 123.770256,0.0722993604 C123.279304,0.0542991804 122.661902,-0.0051014136 122.175,0.000748644897 C103.735732,0.235650994 84.2304102,15.9097577 69.0293543,24.6807954 C52.401343,34.2739914 35.7728818,43.8671873 19.1444205,53.4608332 C11.952044,57.6103247 7.13837629,62.9527782 4.16386534,68.8203868 C3.36331239,70.3994526 2.62800968,71.9987686 2.09655772,73.6435351 C2.02365745,73.8581872 1.93905714,74.0624893 1.86975689,74.2802914 C1.8180067,74.4517432 1.78110656,74.6263449 1.73250638,74.7986966 C0.630902324,78.4207828 0,82.4114228 0,86.8124668 L0,183.18588 C0,190.048449 1.901707,196.761616 5.2947195,202.606725 L5.2929195,202.612125 L5.29921952,202.613025 C8.60808171,208.310532 13.3326491,213.18498 19.1444205,216.537964 C34.8719784,225.612305 50.6004364,234.686195 66.3279943,243.760086 C81.6204006,252.582874 103.451331,270.236551 122.175,269.997599 C122.675852,269.992199 123.184354,269.859897 123.687006,269.831097 C141.678072,268.802387 160.532691,253.850087 175.320646,245.318452 C191.948657,235.724806 208.577118,226.13161 225.205129,216.537964 C230.79145,213.315482 235.342317,208.667385 238.628229,203.253381 C239.597082,201.657665 240.473686,200.010649 241.206738,198.292082 C243.230396,193.552184 244.35,188.415383 244.35,183.18588 L244.35,86.8124668 C244.35,80.9907585 242.920345,75.3045017 240.435886,70.13395" id="hexagone" fill="#FA6484"></path>
                    <g id="art-loisirs" transform="translate(0.000000, 47.250000)">
                        <g>
                            <rect id="size" fill-opacity="0" fill="#D8D8D8" x="0" y="0" width="244" height="176"></rect>
                            <g id="Page-1" transform="translate(52.574586, 3.610256)">
                                <g id="Group-3" transform="translate(0.000000, 134.049272)">
                                    <mask id="mask-4" fill="white">
                                        <use xlink:href="#path-3"></use>
                                    </mask>
                                    <g id="Clip-2"></g>
                                </g>
                                <path d="M105.824777,114.959951 C110.208689,119.362658 114.142796,122.550966 118.526707,118.148258 C122.911068,113.745099 119.735024,109.795479 115.351112,105.392771 L42.8817643,26.2338379 C38.496954,21.8311303 31.3890497,21.8311303 27.0046888,26.2338379 C22.6198785,30.6374482 22.6198785,37.7758277 27.0046888,42.1794379 L105.824777,114.959951 Z" id="Fill-4" fill="#F1DFDF"></path>
                                <path d="M29.6173761,39.4550482 L108.373656,112.176443 C108.413199,112.212094 108.450945,112.247746 108.487792,112.286105 C109.737,113.539315 112.659608,116.475356 114.201347,116.475356 C114.751807,116.475356 115.408765,115.93111 115.863962,115.474864 C117.122606,114.209017 116.913207,113.654843 116.708301,113.119623 C116.160536,111.676874 114.452986,109.838351 112.688816,108.067069 C112.650621,108.030064 112.615122,107.991705 112.579623,107.952443 L40.1677923,28.8575918 C38.7649046,27.4748636 36.9117628,26.7140021 34.943586,26.7140021 C32.9497959,26.7140021 31.0764331,27.4933662 29.6668052,28.9076841 C26.7761017,31.8130379 26.7585768,36.5284841 29.6173761,39.4550482 M114.201347,124.039746 C109.924382,124.039746 106.430194,120.912361 103.21865,117.690658 L24.4560796,44.9633969 C24.4165363,44.9272944 24.3787904,44.8916431 24.3410446,44.8537354 C18.4962785,38.9825559 18.4962785,29.4298174 24.3410446,23.5595405 C27.1737812,20.7160123 30.9380317,19.1496123 34.943586,19.1496123 C38.9477923,19.1496123 42.7124921,20.7160123 45.54433,23.5595405 C45.5811772,23.5965456 45.6180243,23.6349046 45.6539727,23.6741662 L118.070746,102.775335 C120.248772,104.965858 122.650127,107.539971 123.745207,110.420505 C124.728396,113.007705 125.083836,116.912648 121.188824,120.822556 C119.06472,122.957571 116.713243,124.039746 114.201347,124.039746" id="Fill-6" fill="#51474B"></path>
                                <path d="M43.4108803,13.076439 C51.8511234,21.5528697 51.8511234,35.2975672 43.4108803,43.7735467 C34.9701878,52.2504287 21.2850681,52.2504287 12.8443757,43.7735467 C4.40368324,35.2975672 4.7186814,4.27373128 4.7186814,4.27373128 C4.7186814,4.27373128 34.9701878,4.60000821 43.4108803,13.076439" id="Fill-8" fill="#F1DFDF"></path>
                                <g id="Group-12" transform="translate(0.898711, 0.018503)">
                                    <mask id="mask-6" fill="white">
                                        <use xlink:href="#path-5"></use>
                                    </mask>
                                    <g id="Clip-11"></g>
                                    <path d="M7.61603536,8.14934154 C7.89463573,19.7382646 9.84349024,36.2958031 14.6080059,41.0811979 C17.9790703,44.4658133 22.4618401,46.3309621 27.2290519,46.3309621 C31.9962637,46.3309621 36.4785842,44.4658133 39.8496486,41.0811979 C46.8088162,34.0921928 46.8088162,22.721239 39.8496486,15.7317826 C35.0734497,10.9364595 18.9276597,8.66876718 7.61603536,8.14934154 M27.2290519,53.8953518 C20.4496265,53.8953518 14.0759691,51.2431672 9.28269466,46.4293415 C-0.00817826888,37.0986338 0.0201311234,7.55500308 0.0538327808,4.21732103 L0.0924773481,0.432418462 L3.86032265,0.473033846 C7.11365599,0.508685128 35.9155418,1.08497231 45.1749599,10.3840903 C55.0706652,20.3217723 55.0706652,36.4916595 45.1749599,46.4293415 C40.3816855,51.2431672 34.008028,53.8953518 27.2290519,53.8953518" id="Fill-10" fill="#51474B" mask="url(#mask-6)"></path>
                                </g>
                                <path d="M12.943818,12.9435364 C15.2216007,19.4167262 19.6639285,30.6667364 24.4998917,35.525239 C29.033888,40.0777723 34.551074,43.0201313 38.5552803,43.0201313 C39.919074,43.0201313 40.955737,42.6730954 41.6365105,41.9912082 C44.1609893,39.4550031 41.9438696,31.5571159 35.1976965,24.7820185 C30.3536449,19.9181005 19.3134313,15.3222441 12.943818,12.9435364 M38.5552803,48.0632082 C33.2061532,48.0632082 26.4599801,44.624439 20.9495344,39.0903672 C13.1037886,31.2109826 6.80247735,10.4650954 6.53825635,9.58644923 C6.26864309,8.68975179 6.51578858,7.71633641 7.18173333,7.05836718 C7.8485768,6.40220308 8.82322873,6.17114667 9.70890829,6.45635692 C10.570772,6.73479795 30.9180354,13.3533005 38.7480538,21.2168903 C47.3487168,29.8530749 50.1760611,40.5457518 45.1864184,45.5567877 C43.5534608,47.1962954 41.2612987,48.0632082 38.5552803,48.0632082" id="Fill-13" fill="#51474B"></path>
                                <path d="M120.38978,36.2121354 L131.929227,6.79486359 L99.9733157,15.7099405 C99.9733157,15.7099405 92.2075551,47.1322585 120.38978,36.2121354" id="Fill-15" fill="#F1DFDF"></path>
                                <path d="M103.221257,18.7297846 C102.611931,22.610359 102.223238,29.2821128 104.800292,32.5814359 C105.521957,33.5061128 106.856992,34.7349538 110.095945,34.7349538 L110.097294,34.7349538 C112.155341,34.7358564 114.642973,34.2349333 117.506266,33.2439179 L125.654877,12.4709538 L103.221257,18.7297846 Z M110.097294,42.0944615 L110.095945,42.0944615 C104.070988,42.0944615 100.661728,39.4427282 98.8620597,37.1317128 C92.8955182,29.4702974 95.9502365,16.2378051 96.3182586,14.7476718 C96.6453893,13.4245128 97.6568884,12.4055179 98.9658608,12.0399795 L130.921772,3.13844103 C132.291857,2.75620513 133.770236,3.19124103 134.727813,4.25762051 C135.682693,5.32354872 135.956351,6.84391795 135.432852,8.17835897 L123.893404,37.5969846 C123.507408,38.5816821 122.728675,39.2572513 121.745934,39.6376821 C117.301809,41.3597744 113.491275,42.0944615 110.097294,42.0944615 L110.097294,42.0944615 Z" id="Fill-17" fill="#51474B"></path>
                                <path d="M35.1768015,121.791774 C35.1768015,121.791774 28.0751882,120.00921 22.7503263,114.659713 C17.4232177,109.311569 14.7607867,101.287774 14.7607867,101.287774 L31.6264442,84.351159 L52.0411109,104.853805 L35.1768015,121.791774 Z" id="Fill-19" fill="#FA6484"></path>
                                <path d="M19.1689635,102.21033 C20.2469672,104.70953 22.3544442,108.915028 25.4127573,111.985551 C28.3286247,114.914371 31.9657076,116.628341 34.1540685,117.469982 L46.7157996,104.853489 L31.6264442,89.6989867 L19.1689635,102.21033 Z M35.1768015,125.573653 C34.8725878,125.573653 34.5665768,125.536648 34.2637112,125.460833 C33.9325363,125.377797 26.0809488,123.355151 20.0865473,117.333694 C14.1990924,111.422802 11.308389,102.846638 11.1879617,102.483356 C10.7368088,101.124546 11.0895529,99.6258379 12.0983558,98.6140636 L28.9635639,81.6769969 C30.4329562,80.1999508 32.8190335,80.1999508 34.2884258,81.6769969 L54.7039912,102.179643 C56.1751808,103.655787 56.1751808,106.050289 54.7044405,107.527335 L37.8401311,124.465756 C37.1247573,125.183294 36.1626873,125.573653 35.1768015,125.573653 L35.1768015,125.573653 Z" id="Fill-21" fill="#51474B"></path>
                                <polygon id="Fill-23" fill="#F1DFDF" points="47.6038608 109.311434 36.9518902 107.52887 28.9628 99.5055262 27.1873967 88.8078851 99.9735403 15.7096697 102.637769 27.2985928 109.738034 34.4293005 120.390004 36.2123159"></polygon>
                                <path d="M38.1581849,105.174983 L46.7422217,106.611865 L115.165124,37.8942441 L109.324852,36.9163159 C108.808992,36.830121 108.333124,36.5841723 107.962855,36.2123159 L100.86259,29.0811569 C100.529168,28.7476595 100.297301,28.3266133 100.190804,27.8663056 L98.5470615,20.7098749 L29.8765643,89.6734441 L31.307312,98.2938338 L38.1581849,105.174983 Z M47.6040855,111.833198 C47.4665827,111.833198 47.3281812,111.821916 47.1915772,111.798449 L36.5391573,110.015885 C36.0232972,109.92969 35.5465311,109.68329 35.1767116,109.311434 L27.1876214,101.28809 C26.8178018,100.916234 26.5724538,100.438777 26.4861775,99.9202544 L24.7112236,89.2226133 C24.577765,88.41888 24.8388405,87.6016082 25.4126674,87.025321 L98.198811,13.9271056 C98.8449842,13.2772595 99.7886306,13.0371774 100.666222,13.2858338 C101.542914,13.5394544 102.214701,14.2497723 102.420955,15.1424082 L104.921168,26.02688 L110.944329,32.0754133 L120.802737,33.7253005 C121.729308,33.8805415 122.493662,34.5425723 122.779901,35.44288 C123.067039,36.3427364 122.830678,37.3278851 122.164734,37.99488 L49.3790394,111.093998 C48.9045201,111.571003 48.2637392,111.833198 47.6040855,111.833198 L47.6040855,111.833198 Z" id="Fill-25" fill="#51474B"></path>
                                <polygon id="Fill-27" fill="#51474B" points="32.7882976 101.012492 29.2379403 97.4473641 101.750427 24.6244308 105.300334 28.1900103"></polygon>
                                <polygon id="Fill-29" fill="#51474B" points="38.0839963 108.173977 34.5340884 104.608849 107.96281 30.8639467 111.513168 34.4295262"></polygon>
                                <path d="M125.716214,20.1664862 C125.716214,20.1664862 122.164958,20.1664862 119.502078,17.49264 C118.370601,16.3563118 117.727124,12.1431426 117.727124,12.1431426 L130.154049,8.57801436 L125.716214,20.1664862 Z" id="Fill-31" fill="#51474B"></path>
                                <path d="M27.1875764,92.5901703 C26.223709,92.5901703 25.2598416,92.2210215 24.5251455,91.4822728 C23.0539558,90.0056779 23.0539558,87.6102728 24.5251455,86.1336779 L97.3112891,13.0359138 C98.7820295,11.5584164 101.165411,11.5584164 102.636151,13.0359138 C104.10779,14.5120574 104.10779,16.9079138 102.636151,18.3840574 L29.8504567,91.4822728 C29.1153112,92.2210215 28.1514438,92.5901703 27.1875764,92.5901703" id="Fill-33" fill="#51474B"></path>
                                <path d="M43.1651727,117.5504 C42.2017547,117.5504 41.2378873,117.181251 40.5027418,116.442503 C39.0320015,114.965908 39.0320015,112.570503 40.5027418,111.093908 L117.727169,33.5379282 C119.198359,32.0608821 121.581291,32.0608821 123.05248,33.5379282 C124.52367,35.0140718 124.52367,37.4103795 123.05248,38.8865231 L45.828053,116.442503 C45.0929076,117.181251 44.1290401,117.5504 43.1651727,117.5504" id="Fill-35" fill="#51474B"></path>
                            </g>
                            <path d="M121.865435,170.91721 C83.3480058,170.91721 52.1252302,163.164636 52.1252302,153.602872 C52.1252302,144.040205 83.3480058,136.287179 121.865435,136.287179 C160.381063,136.287179 191.60564,144.040205 191.60564,153.602872 C191.60564,163.164636 160.381063,170.91721 121.865435,170.91721 Z" id="Fill-3" fill-opacity="0.15" fill="#000000"></path>
                        </g>
                    </g>
                </g>
            </g>
        </g>
    </g>
</svg>